{"title":"BET.Awards.2011.x264.AC3 (480p)","uid":6501436,"size":2535937590,"categoryP":"video","categoryS":"hd___tv_shows","magnet":"?xt=urn:btih:f5b8e654fc06d133d8d526c70df63c1ac6e7989e&amp;dn=BET.Awards.2011.x264.AC3+%28480p%29&amp;tr=udp%3A%2F%2Ftracker.openbittorrent.com%3A80&amp;tr=udp%3A%2F%2Fopen.demonii.com%3A1337&amp;tr=udp%3A%2F%2Ftracker.coppersurfer.tk%3A6969&amp;tr=udp%3A%2F%2Fexodus.desync.com%3A6969","seeders":7,"leechers":1,"uploader":"y2kviv69","files":4,"time":1309260639,"description":"General\nComplete name                    : BET.Awards.2011.x264.AC3.480p.mkv\nFormat                           : Matroska\nFile size                        : 1.93 GiB\nDuration                         : 2h 42mn\nOverall bit rate                 : 1 701 Kbps\nEncoded date                     : UTC 2011-06-27 12:21:48\nWriting library                  : libebml v0.8.0 + libmatroska v0.9.0\n\nVideo\nID                               : 1\nFormat                           : AVC\nFormat/Info                      : Advanced Video Codec\nFormat profile                   : &lt;a class=&quot;__cf_email__&quot; href=&quot;/cdn-cgi/l/email-protection&quot; data-cfemail=&quot;d991b0beb19995edf7e8&quot;&gt;[email&amp;#160;protected]&lt;/a&gt;&lt;script cf-hash='f9e31' type=&quot;text/javascript&quot;&gt;\n/* &lt;![CDATA[ */!function(){try{var t=&quot;currentScript&quot;in document?document.currentScript:function(){for(var t=document.getElementsByTagName(&quot;script&quot;),e=t.length;e--;)if(t[e].getAttribute(&quot;cf-hash&quot;))return t[e]}();if(t&amp;&amp;t.previousSibling){var e,r,n,i,c=t.previousSibling,a=c.getAttribute(&quot;data-cfemail&quot;);if(a){for(e=&quot;&quot;,r=parseInt(a.substr(0,2),16),n=2;a.length-n;n+=2)i=parseInt(a.substr(n,2),16)^r,e+=String.fromCharCode(i);e=document.createTextNode(e),c.parentNode.replaceChild(e,c)}}}catch(u){}}();/* ]]&gt; */&lt;/script&gt;\nFormat settings, CABAC           : Yes\nFormat settings, ReFrames        : 3 frames\nCodec ID                         : V_MPEG4/ISO/AVC\nDuration                         : 2h 42mn\nBit rate                         : 1 500 Kbps\nWidth                            : 528 pixels\nHeight                           : 480 pixels\nDisplay aspect ratio             : 1.100\nFrame rate                       : 29.970 fps\nColor space                      : YUV\nChroma subsampling               : 4:2:0\nBit depth                        : 8 bits\nScan type                        : Progressive\nBits/(Pixel*Frame)               : 0.197\nStream size                      : 1.67 GiB (87%)\nWriting library                  : x264 core 114 r1924 08d04a4\nLanguage                         : English\n\nAudio\nID                               : 2\nFormat                           : AC-3\nFormat/Info                      : Audio Coding 3\nMode extension                   : CM (complete main)\nCodec ID                         : A_AC3\nDuration                         : 2h 42mn\nBit rate mode                    : Constant\nBit rate                         : 192 Kbps\nChannel(s)                       : 2 channels\nChannel positions                : Front: L R\nSampling rate                    : 48.0 KHz\nBit depth                        : 16 bits\nCompression mode                 : Lossy\nStream size                      : 223 MiB (11%)\n","torrent":{"xt":"urn:btih:f5b8e654fc06d133d8d526c70df63c1ac6e7989e","amp;dn":"BET.Awards.2011.x264.AC3+%28480p%29","amp;tr":["udp%3A%2F%2Ftracker.openbittorrent.com%3A80","udp%3A%2F%2Fopen.demonii.com%3A1337","udp%3A%2F%2Ftracker.coppersurfer.tk%3A6969","udp%3A%2F%2Fexodus.desync.com%3A6969"],"infoHash":"f5b8e654fc06d133d8d526c70df63c1ac6e7989e","infoHashBuffer":{"type":"Buffer","data":[245,184,230,84,252,6,209,51,216,213,38,199,13,246,60,26,198,231,152,158]},"announce":[],"urlList":[]}}